<?xml version="1.0" encoding="UTF-8"?>
<svg xmlns="http://www.w3.org/2000/svg" version="1.1" viewBox="0 0 20 20">s
  <defs>
    <style>
      .st0 {
        fill: #26a03d;
      }

      .st1 {
        fill: #1068af;
      }
    </style>
  </defs>
  <g id="Group-2">
    <path class="st0" d="M11.18,15.47c.15,1.28.78,2.41,1.71,3.21l-7.31.1,1.51-2.64s.54.23.88.21l3.2-.88h.01Z"/>
    <path class="st1" d="M11.67,7.09l.6,2.31-1.91,3.06,1.77-.54c-.26.35-.47.73-.63,1.13l-2.55.7c-.8,0-1.14-.57-1.14-.57l-.78-2.57,2.29-2.87c-.11-.25-.4-.11-.4-.11l-5.25,1.5,1.57,5.6c.04.21.5.61.5.61l-1.43,2.49L.43,11.16c-.41-.64-.43-1.33-.43-1.41h0c.03-.69.72-.88.72-.88,0,0,8.75-2.44,9.69-2.58h.04c.91-.11,1.22.8,1.22.8h0Z"/>
    <path class="st1" d="M15.35,2.05l3.89,6.79c.31.62.28,1,.28,1,.14.72-.16,1-.35,1.09h0c-.84-.65-1.9-1.03-3.04-1.03-.24,0-.47.02-.7.05l-1.14-4.37c-.11-.41-.51-.78-.51-.78,0,0,1.57-2.75,1.57-2.75Z"/>
    <path class="st1" d="M6.1,1.23h7.74l-1.48,2.6-.07-.04s-.58-.32-1.14-.16L1.89,6.2,4.35,1.9s.36-.69,1.75-.67Z"/>
    <path id="Combined-Shape" class="st0" d="M16.14,11.03c2.13,0,3.86,1.73,3.86,3.86s-1.73,3.86-3.86,3.86-3.86-1.73-3.86-3.86,1.73-3.86,3.86-3.86ZM17.45,12.89c-.06,0-.12.01-.17.03-.05.02-.1.05-.15.09l-2.94,2.94v.95h.95l2.94-2.94s.08-.09.1-.15c.02-.05.03-.11.03-.17s-.01-.11-.03-.17-.05-.1-.1-.14l-.31-.31s-.09-.08-.14-.1c-.06-.02-.11-.03-.17-.03h-.01ZM17.45,13.34l.31.31-.31.31-.31-.31.31-.31Z"/>
  </g>
</svg>