<?xml version="1.0" encoding="utf-8"?>
<svg width="291" height="291" viewBox="0 0 291 291" fill="none" xmlns="http://www.w3.org/2000/svg">
  <g>
    <rect width="291" height="291" />
    <path d="M86.1378 0C86.1378 0 62.6456 62.6456 62.6456 62.6456L0 86.1378L62.6456 109.63L86.1378 172.276L109.63 109.63L172.276 86.1378L109.63 62.6456L86.1378 0C86.1378 0 86.1378 0 86.1378 0Z" fill="none" stroke-width="15" stroke="#3D95FB" transform="translate(54.563 68.458)" />
    <path d="M84.875 0C84.875 0 61.7272 9.2381 61.7272 9.2381L0 36.0864L61.7272 62.9348L73.606 67.9715L84.875 39.4062L96.0124 68.0273L108.023 62.9348L169.75 36.0864L108.023 9.2381L84.875 0C84.875 0 84.875 0 84.875 0Z" fill="none" stroke-width="15" stroke="#3D95FB" transform="translate(55.823 30.313)" />
  </g>
</svg>